<?xml version="1.0" encoding="UTF-8" standalone="no"?>
<!DOCTYPE svg PUBLIC "-//W3C//DTD SVG 1.1//EN"
 "http://www.w3.org/Graphics/SVG/1.1/DTD/svg11.dtd">
<!-- Generated by graphviz version 2.40.1 (20161225.0304)
 -->
<!-- Title: dependencies Pages: 1 -->
<svg width="2241pt" height="284pt"
 viewBox="0.00 0.00 2241.00 284.00" xmlns="http://www.w3.org/2000/svg" xmlns:xlink="http://www.w3.org/1999/xlink">
<g id="graph0" class="graph" transform="scale(1 1) rotate(0) translate(4 280)">
<title>dependencies</title>
<polygon fill="#ffffff" stroke="transparent" points="-4,4 -4,-280 2237,-280 2237,4 -4,4"/>
<text text-anchor="start" x="1095.5091" y="-42.4" font-family="sans-serif" font-weight="bold" font-size="14.00" fill="#000000">Legend</text>
<polygon fill="#ffffb3" stroke="transparent" points="882.5,-10 882.5,-30 902.5,-30 902.5,-10 882.5,-10"/>
<text text-anchor="start" x="906.129" y="-15.4" font-family="sans-serif" font-size="14.00" fill="#000000"> &#160;Declarations</text>
<polygon fill="#8dd3c7" stroke="transparent" points="995.5,-10 995.5,-30 1015.5,-30 1015.5,-10 995.5,-10"/>
<text text-anchor="start" x="1019.2251" y="-15.4" font-family="sans-serif" font-size="14.00" fill="#000000"> &#160;Module</text>
<polygon fill="#80b1d3" stroke="transparent" points="1081.5,-10 1081.5,-30 1101.5,-30 1101.5,-10 1081.5,-10"/>
<text text-anchor="start" x="1105.2812" y="-15.4" font-family="sans-serif" font-size="14.00" fill="#000000"> &#160;Bootstrap</text>
<polygon fill="#fdb462" stroke="transparent" points="1178.5,-10 1178.5,-30 1198.5,-30 1198.5,-10 1178.5,-10"/>
<text text-anchor="start" x="1202.1732" y="-15.4" font-family="sans-serif" font-size="14.00" fill="#000000"> &#160;Providers</text>
<polygon fill="#fb8072" stroke="transparent" points="1274.5,-10 1274.5,-30 1294.5,-30 1294.5,-10 1274.5,-10"/>
<text text-anchor="start" x="1298.2258" y="-15.4" font-family="sans-serif" font-size="14.00" fill="#000000"> &#160;Exports</text>
<g id="clust1" class="cluster">
<title>cluster_AppModule</title>
<polygon fill="none" stroke="#000000" stroke-dasharray="1,5" points="8,-70 8,-268 2225,-268 2225,-70 8,-70"/>
</g>
<g id="clust2" class="cluster">
<title>cluster_AppModule_declarations</title>
<polygon fill="none" stroke="#000000" points="358,-78 358,-130 2217,-130 2217,-78 358,-78"/>
</g>
<g id="clust15" class="cluster">
<title>cluster_AppModule_imports</title>
<polygon fill="none" stroke="#000000" points="206,-78 206,-130 350,-130 350,-78 206,-78"/>
</g>
<g id="clust17" class="cluster">
<title>cluster_AppModule_bootstrap</title>
<polygon fill="none" stroke="#000000" points="1136,-208 1136,-260 1260,-260 1260,-208 1136,-208"/>
</g>
<g id="clust18" class="cluster">
<title>cluster_AppModule_providers</title>
<polygon fill="none" stroke="#000000" points="16,-78 16,-130 198,-130 198,-78 16,-78"/>
</g>
<!-- AppComponent -->
<g id="node1" class="node">
<title>AppComponent</title>
<polygon fill="#ffffb3" stroke="#000000" points="2208.9399,-122 2103.0601,-122 2103.0601,-86 2208.9399,-86 2208.9399,-122"/>
<text text-anchor="middle" x="2156" y="-99.8" font-family="Times,serif" font-size="14.00" fill="#000000">AppComponent</text>
</g>
<!-- AppModule -->
<g id="node13" class="node">
<title>AppModule</title>
<polygon fill="#8dd3c7" stroke="#000000" points="1239.6571,-187 1236.6571,-191 1215.6571,-191 1212.6571,-187 1156.3429,-187 1156.3429,-151 1239.6571,-151 1239.6571,-187"/>
<text text-anchor="middle" x="1198" y="-164.8" font-family="Times,serif" font-size="14.00" fill="#000000">AppModule</text>
</g>
<!-- AppComponent&#45;&gt;AppModule -->
<g id="edge1" class="edge">
<title>AppComponent&#45;&gt;AppModule</title>
<path fill="none" stroke="#000000" d="M2156,-122.0908C2156,-145.1328 2156,-182 2156,-182 2156,-182 1249.7801,-182 1249.7801,-182"/>
<polygon fill="#000000" stroke="#000000" points="1249.7801,-178.5001 1239.7801,-182 1249.78,-185.5001 1249.7801,-178.5001"/>
</g>
<!-- ButtonComponent -->
<g id="node2" class="node">
<title>ButtonComponent</title>
<polygon fill="#ffffb3" stroke="#000000" points="2085.9511,-122 1966.0489,-122 1966.0489,-86 2085.9511,-86 2085.9511,-122"/>
<text text-anchor="middle" x="2026" y="-99.8" font-family="Times,serif" font-size="14.00" fill="#000000">ButtonComponent</text>
</g>
<!-- ButtonComponent&#45;&gt;AppModule -->
<g id="edge2" class="edge">
<title>ButtonComponent&#45;&gt;AppModule</title>
<path fill="none" stroke="#000000" d="M2026,-122.0449C2026,-143.6623 2026,-177 2026,-177 2026,-177 1249.9131,-177 1249.9131,-177"/>
<polygon fill="#000000" stroke="#000000" points="1249.9131,-173.5001 1239.9131,-177 1249.9131,-180.5001 1249.9131,-173.5001"/>
</g>
<!-- FooterComponent -->
<g id="node3" class="node">
<title>FooterComponent</title>
<polygon fill="#ffffb3" stroke="#000000" points="1947.8809,-122 1830.1191,-122 1830.1191,-86 1947.8809,-86 1947.8809,-122"/>
<text text-anchor="middle" x="1889" y="-99.8" font-family="Times,serif" font-size="14.00" fill="#000000">FooterComponent</text>
</g>
<!-- FooterComponent&#45;&gt;AppModule -->
<g id="edge3" class="edge">
<title>FooterComponent&#45;&gt;AppModule</title>
<path fill="none" stroke="#000000" d="M1889,-122.2228C1889,-142.3652 1889,-172 1889,-172 1889,-172 1249.669,-172 1249.669,-172"/>
<polygon fill="#000000" stroke="#000000" points="1249.669,-168.5001 1239.669,-172 1249.669,-175.5001 1249.669,-168.5001"/>
</g>
<!-- HeaderComponent -->
<g id="node4" class="node">
<title>HeaderComponent</title>
<polygon fill="#ffffb3" stroke="#000000" points="1811.7437,-122 1690.2563,-122 1690.2563,-86 1811.7437,-86 1811.7437,-122"/>
<text text-anchor="middle" x="1751" y="-99.8" font-family="Times,serif" font-size="14.00" fill="#000000">HeaderComponent</text>
</g>
<!-- HeaderComponent&#45;&gt;AppModule -->
<g id="edge4" class="edge">
<title>HeaderComponent&#45;&gt;AppModule</title>
<path fill="none" stroke="#000000" d="M1751,-122.2222C1751,-140.8285 1751,-167 1751,-167 1751,-167 1250.0188,-167 1250.0188,-167"/>
<polygon fill="#000000" stroke="#000000" points="1250.0188,-163.5001 1240.0188,-167 1250.0187,-170.5001 1250.0188,-163.5001"/>
</g>
<!-- LandingComponent -->
<g id="node5" class="node">
<title>LandingComponent</title>
<polygon fill="#ffffb3" stroke="#000000" points="1671.9902,-122 1544.0098,-122 1544.0098,-86 1671.9902,-86 1671.9902,-122"/>
<text text-anchor="middle" x="1608" y="-99.8" font-family="Times,serif" font-size="14.00" fill="#000000">LandingComponent</text>
</g>
<!-- LandingComponent&#45;&gt;AppModule -->
<g id="edge5" class="edge">
<title>LandingComponent&#45;&gt;AppModule</title>
<path fill="none" stroke="#000000" d="M1608,-122.0336C1608,-139.0597 1608,-162 1608,-162 1608,-162 1249.9504,-162 1249.9504,-162"/>
<polygon fill="#000000" stroke="#000000" points="1249.9504,-158.5001 1239.9504,-162 1249.9504,-165.5001 1249.9504,-158.5001"/>
</g>
<!-- MainMenuComponent -->
<g id="node6" class="node">
<title>MainMenuComponent</title>
<polygon fill="#ffffb3" stroke="#000000" points="1525.5421,-122 1382.4579,-122 1382.4579,-86 1525.5421,-86 1525.5421,-122"/>
<text text-anchor="middle" x="1454" y="-99.8" font-family="Times,serif" font-size="14.00" fill="#000000">MainMenuComponent</text>
</g>
<!-- MainMenuComponent&#45;&gt;AppModule -->
<g id="edge6" class="edge">
<title>MainMenuComponent&#45;&gt;AppModule</title>
<path fill="none" stroke="#000000" d="M1454,-122.2396C1454,-137.5706 1454,-157 1454,-157 1454,-157 1249.7006,-157 1249.7006,-157"/>
<polygon fill="#000000" stroke="#000000" points="1249.7006,-153.5001 1239.7006,-157 1249.7005,-160.5001 1249.7006,-153.5001"/>
</g>
<!-- MenuListItemsComponent -->
<g id="node7" class="node">
<title>MenuListItemsComponent</title>
<polygon fill="#ffffb3" stroke="#000000" points="1364.371,-122 1197.629,-122 1197.629,-86 1364.371,-86 1364.371,-122"/>
<text text-anchor="middle" x="1281" y="-99.8" font-family="Times,serif" font-size="14.00" fill="#000000">MenuListItemsComponent</text>
</g>
<!-- MenuListItemsComponent&#45;&gt;AppModule -->
<g id="edge7" class="edge">
<title>MenuListItemsComponent&#45;&gt;AppModule</title>
<path fill="none" stroke="#000000" d="M1218.6964,-122.1061C1218.6964,-122.1061 1218.6964,-140.991 1218.6964,-140.991"/>
<polygon fill="#000000" stroke="#000000" points="1215.1964,-140.9909 1218.6964,-150.991 1222.1964,-140.991 1215.1964,-140.9909"/>
</g>
<!-- MissingComponent -->
<g id="node8" class="node">
<title>MissingComponent</title>
<polygon fill="#ffffb3" stroke="#000000" points="1179.4482,-122 1052.5518,-122 1052.5518,-86 1179.4482,-86 1179.4482,-122"/>
<text text-anchor="middle" x="1116" y="-99.8" font-family="Times,serif" font-size="14.00" fill="#000000">MissingComponent</text>
</g>
<!-- MissingComponent&#45;&gt;AppModule -->
<g id="edge8" class="edge">
<title>MissingComponent&#45;&gt;AppModule</title>
<path fill="none" stroke="#000000" d="M1167.6978,-122.1061C1167.6978,-122.1061 1167.6978,-140.991 1167.6978,-140.991"/>
<polygon fill="#000000" stroke="#000000" points="1164.1978,-140.9909 1167.6978,-150.991 1171.1978,-140.991 1164.1978,-140.9909"/>
</g>
<!-- OverlayPanelComponent -->
<g id="node9" class="node">
<title>OverlayPanelComponent</title>
<polygon fill="#ffffb3" stroke="#000000" points="1034.5225,-122 877.4775,-122 877.4775,-86 1034.5225,-86 1034.5225,-122"/>
<text text-anchor="middle" x="956" y="-99.8" font-family="Times,serif" font-size="14.00" fill="#000000">OverlayPanelComponent</text>
</g>
<!-- OverlayPanelComponent&#45;&gt;AppModule -->
<g id="edge9" class="edge">
<title>OverlayPanelComponent&#45;&gt;AppModule</title>
<path fill="none" stroke="#000000" d="M956,-122.2396C956,-137.5706 956,-157 956,-157 956,-157 1146.1231,-157 1146.1231,-157"/>
<polygon fill="#000000" stroke="#000000" points="1146.1231,-160.5001 1156.1231,-157 1146.1231,-153.5001 1146.1231,-160.5001"/>
</g>
<!-- OverlayPanelHeaderComponent -->
<g id="node10" class="node">
<title>OverlayPanelHeaderComponent</title>
<polygon fill="#ffffb3" stroke="#000000" points="858.9328,-122 661.0672,-122 661.0672,-86 858.9328,-86 858.9328,-122"/>
<text text-anchor="middle" x="760" y="-99.8" font-family="Times,serif" font-size="14.00" fill="#000000">OverlayPanelHeaderComponent</text>
</g>
<!-- OverlayPanelHeaderComponent&#45;&gt;AppModule -->
<g id="edge10" class="edge">
<title>OverlayPanelHeaderComponent&#45;&gt;AppModule</title>
<path fill="none" stroke="#000000" d="M760,-122.0336C760,-139.0597 760,-162 760,-162 760,-162 1146.0027,-162 1146.0027,-162"/>
<polygon fill="#000000" stroke="#000000" points="1146.0028,-165.5001 1156.0027,-162 1146.0027,-158.5001 1146.0028,-165.5001"/>
</g>
<!-- SliderComponent -->
<g id="node11" class="node">
<title>SliderComponent</title>
<polygon fill="#ffffb3" stroke="#000000" points="643.2716,-122 528.7284,-122 528.7284,-86 643.2716,-86 643.2716,-122"/>
<text text-anchor="middle" x="586" y="-99.8" font-family="Times,serif" font-size="14.00" fill="#000000">SliderComponent</text>
</g>
<!-- SliderComponent&#45;&gt;AppModule -->
<g id="edge11" class="edge">
<title>SliderComponent&#45;&gt;AppModule</title>
<path fill="none" stroke="#000000" d="M586,-122.2222C586,-140.8285 586,-167 586,-167 586,-167 1145.9348,-167 1145.9348,-167"/>
<polygon fill="#000000" stroke="#000000" points="1145.9348,-170.5001 1155.9348,-167 1145.9347,-163.5001 1145.9348,-170.5001"/>
</g>
<!-- StyleGuideComponent -->
<g id="node12" class="node">
<title>StyleGuideComponent</title>
<polygon fill="#ffffb3" stroke="#000000" points="510.323,-122 365.677,-122 365.677,-86 510.323,-86 510.323,-122"/>
<text text-anchor="middle" x="438" y="-99.8" font-family="Times,serif" font-size="14.00" fill="#000000">StyleGuideComponent</text>
</g>
<!-- StyleGuideComponent&#45;&gt;AppModule -->
<g id="edge12" class="edge">
<title>StyleGuideComponent&#45;&gt;AppModule</title>
<path fill="none" stroke="#000000" d="M438,-122.2228C438,-142.3652 438,-172 438,-172 438,-172 1146.3283,-172 1146.3283,-172"/>
<polygon fill="#000000" stroke="#000000" points="1146.3284,-175.5001 1156.3283,-172 1146.3283,-168.5001 1146.3284,-175.5001"/>
</g>
<!-- AppComponent  -->
<g id="node15" class="node">
<title>AppComponent </title>
<polygon fill="#80b1d3" stroke="#000000" points="1252.439,-252 1143.561,-252 1143.561,-216 1252.439,-216 1252.439,-252"/>
<text text-anchor="middle" x="1198" y="-229.8" font-family="Times,serif" font-size="14.00" fill="#000000">AppComponent </text>
</g>
<!-- AppModule&#45;&gt;AppComponent  -->
<g id="edge14" class="edge">
<title>AppModule&#45;&gt;AppComponent </title>
<path fill="none" stroke="#000000" stroke-dasharray="1,5" d="M1198,-187.1061C1198,-187.1061 1198,-205.991 1198,-205.991"/>
<polygon fill="#000000" stroke="#000000" points="1194.5001,-205.9909 1198,-215.991 1201.5001,-205.991 1194.5001,-205.9909"/>
</g>
<!-- AppRoutingModule -->
<g id="node14" class="node">
<title>AppRoutingModule</title>
<polygon fill="#8dd3c7" stroke="#000000" points="342.2744,-122 339.2744,-126 318.2744,-126 315.2744,-122 213.7256,-122 213.7256,-86 342.2744,-86 342.2744,-122"/>
<text text-anchor="middle" x="278" y="-99.8" font-family="Times,serif" font-size="14.00" fill="#000000">AppRoutingModule</text>
</g>
<!-- AppRoutingModule&#45;&gt;AppModule -->
<g id="edge13" class="edge">
<title>AppRoutingModule&#45;&gt;AppModule</title>
<path fill="none" stroke="#000000" d="M278,-122.0449C278,-143.6623 278,-177 278,-177 278,-177 1146.0789,-177 1146.0789,-177"/>
<polygon fill="#000000" stroke="#000000" points="1146.0789,-180.5001 1156.0789,-177 1146.0788,-173.5001 1146.0789,-180.5001"/>
</g>
<!-- MainMenuService -->
<g id="node16" class="node">
<title>MainMenuService</title>
<ellipse fill="#fdb462" stroke="#000000" cx="107" cy="-104" rx="82.8052" ry="18"/>
<text text-anchor="middle" x="107" y="-99.8" font-family="Times,serif" font-size="14.00" fill="#000000">MainMenuService</text>
</g>
<!-- MainMenuService&#45;&gt;AppModule -->
<g id="edge15" class="edge">
<title>MainMenuService&#45;&gt;AppModule</title>
<path fill="none" stroke="#000000" d="M107,-122.0908C107,-145.1328 107,-182 107,-182 107,-182 1146.2325,-182 1146.2325,-182"/>
<polygon fill="#000000" stroke="#000000" points="1146.2325,-185.5001 1156.2325,-182 1146.2324,-178.5001 1146.2325,-185.5001"/>
</g>
</g>
</svg>
